<?xml version="1.0" encoding="utf-8"?>
<svg xmlns="http://www.w3.org/2000/svg">
    <symbol xmlns="http://www.w3.org/2000/svg" id="carousel_album" viewBox="0 0 48 48" fill="#ffffff">
        <path d="M34.8 29.7V11c0-2.9-2.3-5.2-5.2-5.2H11c-2.9 0-5.2 2.3-5.2 5.2v18.7c0 2.9 2.3 5.2 5.2 5.2h18.7c2.8-.1 5.1-2.4 5.1-5.2zM39.2 15v16.1c0 4.5-3.7 8.2-8.2 8.2H14.9c-.6 0-.9.7-.5 1.1 1 1.1 2.4 1.8 4.1 1.8h13.4c5.7 0 10.3-4.6 10.3-10.3V18.5c0-1.6-.7-3.1-1.8-4.1-.5-.4-1.2 0-1.2.6z"/>
    </symbol>
    <symbol xmlns="http://www.w3.org/2000/svg" id="video" viewBox="0 0 24 24" fill="#ffffff">
        <path d="M12.823 1l2.974 5.002h-5.58l-2.65-4.971c.206-.013.419-.022.642-.027L8.55 1zm2.327 0h.298c3.06 0 4.468.754 5.64 1.887a6.007 6.007 0 011.596 2.82l.07.295h-4.629L15.15 1zm-9.667.377L7.95 6.002H1.244a6.01 6.01 0 013.942-4.53zm9.735 12.834l-4.545-2.624a.909.909 0 00-1.356.668l-.008.12v5.248a.91.91 0 001.255.84l.109-.053 4.545-2.624a.909.909 0 00.1-1.507l-.1-.068-4.545-2.624zm-14.2-6.209h21.964l.015.36.003.189v6.899c0 3.061-.755 4.469-1.888 5.64-1.151 1.114-2.5 1.856-5.33 1.909l-.334.003H8.551c-3.06 0-4.467-.755-5.64-1.889-1.114-1.15-1.854-2.498-1.908-5.33L1 15.45V8.551l.003-.189z"/>
    </symbol>
</svg>