<svg width="44" height="49" viewBox="0 0 44 49" fill="none" xmlns="http://www.w3.org/2000/svg">
<path d="M33.3193 0C39.1489 0.000130547 43.875 4.72607 43.875 10.5557V33.3193C43.8749 39.1488 39.1488 43.8749 33.3193 43.875H28.8311L25.0186 47.6875C23.3697 49.3363 20.6957 49.3364 19.0469 47.6875L15.2344 43.875H10.5557C4.72615 43.8749 0.000128429 39.1488 0 33.3193V10.5557C0 4.72605 4.72607 9.38113e-05 10.5557 0H33.3193ZM21.9375 11.7812C15.7675 11.7812 10.7656 16.7831 10.7656 22.9531C10.7658 29.123 15.7676 34.125 21.9375 34.125C28.1074 34.125 33.1092 29.123 33.1094 22.9531C33.1094 16.7831 28.1075 11.7813 21.9375 11.7812ZM21.9375 14.8281C26.4248 14.8281 30.0625 18.4659 30.0625 22.9531C30.0623 27.4403 26.4247 31.0781 21.9375 31.0781C17.4503 31.0781 13.8127 27.4403 13.8125 22.9531C13.8125 18.4658 17.4502 14.8281 21.9375 14.8281ZM21.9375 16.8594C18.572 16.8594 15.8438 19.5877 15.8438 22.9531C15.8439 26.3184 18.5722 29.0469 21.9375 29.0469C25.3028 29.0469 28.0311 26.3184 28.0312 22.9531C28.0312 19.5877 25.303 16.8594 21.9375 16.8594ZM35.9531 6.5C34.8313 6.5 33.9219 7.40947 33.9219 8.53125C33.9219 9.65307 34.8313 10.5625 35.9531 10.5625C37.0749 10.5624 37.9844 9.65304 37.9844 8.53125C37.9843 7.4095 37.0749 6.50005 35.9531 6.5Z" fill="url(#paint0_linear_81_20)"/>
<defs>
<linearGradient id="paint0_linear_81_20" x1="1.49597e-06" y1="48.8931" x2="42.7999" y2="-0.923676" gradientUnits="userSpaceOnUse">
<stop stop-color="#F9493B"/>
<stop offset="1" stop-color="#DD337D"/>
</linearGradient>
</defs>
</svg>
